<?xml version="1.0" standalone="no"?>
<!DOCTYPE svg PUBLIC "-//W3C//DTD SVG 20010904//EN"
 "http://www.w3.org/TR/2001/REC-SVG-20010904/DTD/svg10.dtd">
<svg version="1.0" xmlns="http://www.w3.org/2000/svg"
 width="209.000000pt" height="209.000000pt" viewBox="0 0 209.000000 209.000000"
 preserveAspectRatio="xMidYMid meet">
<metadata>
Created by potrace 1.11, written by Peter Selinger 2001-2013
</metadata>
<g transform="translate(0.000000,209.000000) scale(0.100000,-0.100000)"
fill="#000000" stroke="none">
<path d="M1299 2041 c-91 -26 -99 -27 -140 -13 -29 10 -90 15 -179 15 -121 1
-143 -2 -212 -26 -42 -14 -102 -41 -135 -58 -54 -30 -66 -33 -167 -35 -60 -2
-111 -5 -113 -7 -4 -5 -60 -208 -68 -245 -2 -13 -18 -68 -34 -121 -60 -193
-71 -251 -76 -416 -12 -357 144 -640 482 -875 134 -94 462 -240 538 -240 36 0
337 303 441 442 194 260 286 492 288 723 0 61 -2 129 -6 152 -10 55 -45 161
-68 198 -10 17 -25 59 -34 95 -53 207 -72 265 -91 275 -11 5 -84 45 -162 88
-77 42 -147 77 -155 76 -7 0 -56 -13 -109 -28z m347 -158 c-2 -2 -12 -6 -22
-8 -11 -2 -41 -10 -68 -18 -42 -11 -58 -11 -100 1 -89 24 -243 24 -351 -2 -38
-9 -101 -34 -170 -67 -64 -31 -78 -34 -162 -34 l-92 0 -100 55 c-55 30 -98 56
-96 59 3 2 26 5 52 6 34 1 75 14 143 47 158 77 310 96 451 57 l69 -19 107 28
106 28 118 -65 c65 -35 117 -66 115 -68z m-1165 -78 c45 -25 83 -45 85 -45 3
0 22 -11 43 -25 l39 -24 -34 -134 c-18 -73 -52 -180 -75 -236 -95 -237 -90
-483 13 -701 69 -144 203 -308 350 -426 40 -32 78 -62 83 -66 6 -5 -8 -2 -30
8 -145 60 -313 167 -424 270 -300 278 -379 628 -242 1071 16 54 44 155 62 226
18 70 36 127 41 127 4 0 44 -20 89 -45z m1264 -107 c21 -79 51 -168 66 -198
48 -98 64 -175 63 -314 l0 -89 -40 -30 c-72 -55 -208 -201 -258 -276 -27 -41
-69 -112 -93 -158 -45 -86 -127 -317 -137 -388 -4 -26 -16 -49 -34 -64 -15
-13 -41 -37 -58 -53 l-31 -29 0 255 0 256 56 42 c61 45 203 161 236 193 12 11
51 49 88 83 120 113 180 205 193 294 3 24 7 53 9 65 6 38 -23 151 -51 203 -34
63 -121 160 -142 160 -20 0 -207 -103 -309 -170 -40 -26 -74 -43 -74 -37 -1 7
-2 94 -3 194 -1 122 2 184 9 187 22 8 154 -3 212 -17 58 -15 63 -15 144 8 46
13 91 24 100 24 12 1 25 -32 54 -141z m-570 -76 c0 -103 0 -190 -2 -194 -2 -3
-31 5 -66 19 -69 28 -276 83 -313 83 -18 0 -35 -17 -74 -75 -28 -41 -67 -107
-87 -147 -35 -68 -37 -79 -38 -163 0 -76 4 -98 24 -139 32 -64 127 -159 227
-225 76 -52 289 -161 313 -161 8 0 11 -73 11 -265 l0 -265 -49 30 c-27 17 -53
36 -58 43 -5 6 -22 55 -37 107 -85 291 -245 495 -486 619 -12 7 -15 30 -15
112 0 145 20 240 71 341 13 25 40 111 60 190 19 80 39 150 43 157 5 8 41 13
102 15 86 3 100 6 167 41 68 36 191 77 201 69 3 -3 5 -89 6 -192z m470 -68
c69 -75 115 -194 109 -279 -9 -105 -70 -201 -207 -329 -117 -108 -258 -226
-298 -250 l-28 -16 1 47 c1 27 4 53 8 58 13 19 120 224 120 230 0 3 -28 36
-63 73 l-63 67 2 95 c1 52 2 101 3 108 2 21 342 231 375 232 4 0 23 -16 41
-36z m-695 -111 c115 -32 220 -74 221 -87 0 -6 2 -55 3 -109 l1 -98 -62 -80
c-35 -43 -63 -84 -63 -90 0 -6 27 -55 60 -108 53 -86 60 -104 60 -149 0 -51 0
-51 -25 -42 -125 48 -325 171 -402 250 -133 134 -136 251 -10 450 22 36 47 73
55 82 16 20 33 18 162 -19z m301 -394 l40 -40 -47 -89 -47 -89 -44 69 c-23 39
-43 73 -43 76 0 5 40 59 75 101 16 19 23 16 66 -28z m579 -126 c-62 -189 -204
-414 -380 -603 l-42 -45 7 35 c23 112 122 331 207 457 60 88 219 255 225 236
3 -7 -5 -43 -17 -80z m-1111 -223 c81 -79 135 -153 184 -254 36 -73 75 -175
81 -212 5 -24 4 -25 -12 -12 -9 8 -32 28 -51 44 -144 123 -238 234 -301 356
-33 62 -80 184 -80 205 0 17 117 -66 179 -127z"/>
<path d="M1461 1384 c-43 -23 -82 -83 -88 -137 -13 -112 99 -185 195 -127 90
55 107 204 28 255 -38 25 -95 29 -135 9z m100 -51 c16 -10 29 -22 30 -28 0 -5
2 -20 5 -32 9 -51 -47 -123 -95 -123 -81 0 -108 119 -38 169 47 34 60 36 98
14z"/>
<path d="M836 1295 c-132 -69 -122 -267 15 -282 82 -9 155 52 165 139 14 113
-86 192 -180 143z m110 -56 c8 -6 16 -26 20 -44 19 -102 -116 -182 -161 -95
-25 49 -1 123 50 149 23 12 71 6 91 -10z"/>
</g>
</svg>
